<svg version="1.1" id="Layer_1" xmlns="http://www.w3.org/2000/svg" xmlns:xlink="http://www.w3.org/1999/xlink" x="0px" y="0px"
	 width="100%" viewBox="0 0 1024 1024" enable-background="new 0 0 1024 1024" xml:space="preserve">
<path fill="#000000" opacity="1.000000" stroke="none" 
	d="
M461.318726,718.433960 
	C455.530670,720.004211 451.815308,717.973022 449.474213,713.099792 
	C445.038147,703.865723 439.100220,695.605408 432.553070,687.822144 
	C416.937897,669.258789 414.994568,648.562988 422.903625,626.467712 
	C427.484985,613.669006 437.972595,609.400696 450.607758,614.349304 
	C456.228058,616.550537 461.265045,619.830200 466.598358,622.558716 
	C468.028046,623.290161 469.326233,624.413635 471.143982,624.266479 
	C470.306519,617.904480 461.290985,610.877380 443.712402,603.081970 
	C463.875702,570.734497 465.125641,534.847229 462.341370,498.345398 
	C464.838959,498.039185 466.211914,499.494446 467.747986,500.331329 
	C470.422363,501.788483 472.907379,501.631805 475.219666,499.876892 
	C476.711182,498.744843 479.082031,497.797333 478.104553,495.254791 
	C477.160736,492.799835 475.082794,494.039398 473.345459,494.208679 
	C467.415894,494.786499 463.216858,491.394562 459.325653,487.701904 
	C447.881775,476.841797 439.224670,463.731384 430.135193,450.987610 
	C424.224670,442.700836 417.959778,434.731232 410.939178,427.343262 
	C401.713593,417.634888 390.965271,410.857300 377.015533,409.647949 
	C396.947784,419.056091 411.756317,433.937317 423.274170,452.539764 
	C413.656036,448.933044 405.028320,443.189484 395.231995,439.658508 
	C393.605621,456.161591 399.304138,475.480927 416.407257,476.950867 
	C424.266541,477.626343 432.019867,480.051422 439.203156,483.866974 
	C447.619080,488.337341 453.036438,495.003540 453.989594,504.473938 
	C456.728027,531.682861 455.593353,558.588806 446.281769,584.662598 
	C443.420624,592.674316 438.244019,599.053467 430.924194,605.915527 
	C428.985992,592.277039 427.219635,579.847961 425.358459,566.751526 
	C422.417847,569.003601 421.035309,568.066040 419.717834,565.474426 
	C411.765411,549.831360 399.485596,537.926941 386.095276,527.000061 
	C382.482178,524.051697 379.176392,520.706909 375.442841,517.929443 
	C363.715881,509.205475 362.065063,497.227081 364.091034,483.979095 
	C364.842072,479.067963 365.695068,474.172516 366.475159,469.265717 
	C366.667145,468.058136 366.489105,466.946106 365.139160,466.239960 
	C364.771881,466.451599 364.211212,466.587891 363.966675,466.942322 
	C351.539825,484.952576 333.525513,485.964661 314.859924,481.710907 
	C290.176788,476.085815 272.150452,460.110870 256.798920,440.781128 
	C256.620209,440.556091 256.664673,440.153748 256.406738,438.773499 
	C269.493500,438.376404 282.556732,439.297424 295.349121,436.359100 
	C308.045532,433.442841 320.176666,429.338043 331.736725,422.524506 
	C329.843323,419.957886 327.536560,419.808319 325.305298,419.311340 
	C293.568665,412.242523 262.280731,403.747131 233.431976,388.232605 
	C216.886185,379.334503 201.724625,368.514069 190.110809,353.420563 
	C170.088089,327.398804 166.319031,298.832916 177.328964,268.199951 
	C188.125488,238.160675 207.716522,214.540924 231.973907,194.418106 
	C260.368805,170.862961 292.861664,154.622086 327.330444,140.784454 
	C327.397827,143.777222 325.326721,145.138748 324.044952,146.810593 
	C307.724915,168.097641 291.342194,189.348633 277.820862,212.588531 
	C269.758148,226.446396 263.160614,240.862106 260.128174,256.855347 
	C257.290771,271.819824 263.279083,282.398407 274.872406,290.736267 
	C286.464264,299.073090 299.885162,303.088470 313.505432,306.400238 
	C329.179718,310.211395 345.143494,312.355896 361.212036,313.656250 
	C368.391022,314.237213 370.098236,315.763092 370.272217,323.115631 
	C370.611176,337.440521 369.521210,351.683411 367.586304,365.875519 
	C367.161041,368.994537 367.168976,372.172638 366.899597,376.603790 
	C372.416687,366.168121 375.259735,356.045380 377.528259,345.770477 
	C378.958374,339.292999 379.658966,332.710724 379.772125,326.008026 
	C379.908417,317.939484 377.083374,311.789795 370.423950,307.320038 
	C369.632141,306.788574 368.977417,306.052887 368.128754,305.295471 
	C370.403961,302.667053 373.218109,302.533356 376.035095,302.672760 
	C379.216461,302.830231 381.587585,301.854706 383.967957,299.487244 
	C394.291046,289.220245 406.455261,285.401154 420.944519,289.077240 
	C438.377960,293.500305 455.591583,298.676666 472.460724,304.799408 
	C498.893951,314.393402 524.978699,314.396851 551.480042,305.106903 
	C569.045654,298.949310 586.895386,293.599274 604.980957,289.031738 
	C618.961670,285.500885 630.705811,289.117096 640.716980,298.799500 
	C643.638367,301.624969 646.392578,303.038727 650.334473,302.693359 
	C652.982971,302.461273 655.563477,302.958527 658.070679,304.824585 
	C656.228699,307.671570 652.999512,308.666656 651.113281,311.191437 
	C646.974670,316.730957 645.968506,322.864258 646.273804,329.579285 
	C646.987183,345.266113 651.464905,359.900208 658.836060,374.005035 
	C658.653625,371.047577 658.526794,368.085327 658.273132,365.134003 
	C658.017517,362.159546 657.668152,359.191895 657.303894,356.228180 
	C655.860168,344.482605 655.266357,332.691467 655.746277,320.871918 
	C655.967896,315.412964 657.756348,314.188141 664.324585,313.677673 
	C683.225647,312.208740 701.940918,309.499573 720.240295,304.455750 
	C730.706604,301.570984 740.762451,297.612885 749.879272,291.527893 
	C763.944397,282.140137 768.778320,270.204224 765.110046,253.749695 
	C760.346985,232.384750 749.630371,213.818863 737.797607,195.801804 
	C726.813354,179.076767 714.518250,163.305832 702.274353,147.500595 
	C700.897095,145.722794 699.100830,144.154160 698.369507,140.854553 
	C705.178711,143.687561 711.456726,146.149826 717.613159,148.885651 
	C753.067444,164.641006 786.027161,184.215408 812.880798,212.730789 
	C832.251648,233.300308 846.899719,256.566193 852.542542,284.825348 
	C857.865234,311.481354 851.223022,334.972107 834.222595,355.680145 
	C817.690857,375.817230 795.680542,388.212128 772.116516,398.113922 
	C748.874023,407.880615 724.649658,414.447571 699.989075,419.508209 
	C697.807678,419.955841 695.381958,419.934967 693.015686,421.973114 
	C716.958496,436.474884 742.848389,440.177490 769.938232,438.430298 
	C769.938232,439.431854 770.132629,440.041473 769.910583,440.325317 
	C754.453308,460.085510 735.931763,475.670288 710.964355,481.698975 
	C697.214539,485.018982 683.591125,484.862335 671.060059,476.679443 
	C666.874512,473.946289 664.765381,469.434204 661.185913,465.996704 
	C659.185852,467.092773 659.537354,468.548035 659.840576,470.273376 
	C661.365295,478.949860 662.407288,487.652710 662.488281,496.515503 
	C662.546082,502.845459 660.279724,507.758911 656.209656,512.260559 
	C650.701843,518.352356 644.183533,523.296082 637.963928,528.572571 
	C624.794800,539.744812 612.513489,551.637878 604.903870,567.520325 
	C604.708435,567.928162 604.210876,568.191284 603.820618,568.553040 
	C601.340210,567.765747 602.824402,564.920654 601.210510,563.646606 
	C597.997192,577.208069 597.067017,591.041748 594.852295,605.879028 
	C589.267822,601.357971 585.342163,596.764526 582.735107,591.205383 
	C576.021729,576.890564 572.887695,561.717102 571.492188,545.986267 
	C570.189880,531.306030 570.452515,516.774170 572.561768,502.230621 
	C573.615173,494.967102 577.640320,489.716949 583.637634,485.792145 
	C590.451965,481.332703 598.100464,479.154480 605.984558,477.607819 
	C622.817200,474.305573 627.819336,469.142761 630.618774,452.184143 
	C630.997192,449.891754 631.521118,447.591309 631.577942,445.284760 
	C631.690674,440.703583 629.752014,439.443390 625.717102,441.486969 
	C620.221069,444.270660 614.852112,447.304413 609.375000,450.126648 
	C607.542603,451.070862 605.902893,452.721313 602.494446,452.154358 
	C614.071838,435.831177 626.179321,421.015564 644.195129,412.173004 
	C642.304260,409.569092 640.711243,411.063660 639.264954,411.450958 
	C624.416809,415.427063 614.253418,425.732513 605.343140,437.356476 
	C596.123657,449.383911 587.485229,461.856079 578.554749,474.106079 
	C574.714233,479.374115 570.304382,484.164795 565.525513,488.576477 
	C558.348083,495.202423 553.212524,496.226898 546.130371,490.593353 
	C545.502136,490.093628 544.741150,489.650787 543.307983,490.505371 
	C544.243652,494.971283 546.844604,498.013580 550.982971,500.377350 
	C555.759827,503.105804 559.102234,498.989471 563.530273,498.255310 
	C561.141235,534.797607 561.695312,570.632446 582.298035,603.468628 
	C574.838196,605.413818 569.010803,608.089172 563.817566,612.071777 
	C558.782166,615.933228 554.490173,620.444519 550.016541,626.564331 
	C556.687744,624.210266 561.285522,620.640686 566.339783,617.955566 
	C571.761353,615.075378 577.070496,612.035522 583.479736,611.553955 
	C591.045410,610.985413 596.332031,614.456665 600.181885,620.392761 
	C604.910400,627.683472 606.171326,636.076172 607.398865,644.518372 
	C610.240784,664.062561 600.976990,678.850952 589.147888,692.798950 
	C584.937317,697.763733 581.483826,703.239380 578.967102,709.319275 
	C575.263489,718.266724 571.899353,719.834290 562.151184,717.875488 
	C552.066956,715.849182 542.139099,713.091187 531.831360,712.120117 
	C511.798187,710.232849 491.979858,710.902405 472.423584,716.038513 
	C468.897247,716.964661 465.299927,717.620422 461.318726,718.433960 
M792.951477,324.492157 
	C790.452576,326.422211 788.010864,328.432068 785.445618,330.269409 
	C768.300720,342.549347 748.079956,349.098053 730.118896,359.875366 
	C727.657227,361.352509 724.883057,361.998657 725.692444,365.925262 
	C726.498047,369.833679 728.851562,371.142151 732.474426,370.927704 
	C734.294006,370.820007 736.157288,370.806335 737.914368,370.387451 
	C754.176758,366.510651 769.730652,361.009125 783.478271,351.094421 
	C798.296143,340.407959 810.966431,327.973602 817.821411,310.593842 
	C820.107483,304.797791 819.577209,303.940765 813.491211,302.122833 
	C807.727844,310.327881 800.798828,317.349457 792.951477,324.492157 
M578.278748,409.813721 
	C588.761047,394.107971 603.339355,382.923462 620.278625,373.827515 
	C617.703186,371.976746 616.497803,372.705872 615.233215,373.059875 
	C601.312805,376.956909 590.056885,384.858856 580.717896,395.750916 
	C570.836426,407.275696 562.726929,420.121918 553.425720,432.074951 
	C548.825745,437.986359 543.967468,443.696808 539.368835,449.609253 
	C536.473999,453.331146 537.152893,455.618958 540.968262,456.890198 
	C543.656433,457.785919 544.544556,455.775726 545.747070,454.310272 
	C557.268982,440.269440 567.265320,425.110565 578.278748,409.813721 
M407.010773,372.346283 
	C406.687714,372.364288 406.361420,372.363403 406.044495,372.417480 
	C405.986908,372.427307 405.901611,372.751343 405.940338,372.779999 
	C407.267517,373.762329 408.520782,374.887482 409.960144,375.668854 
	C427.465668,385.172089 441.207611,398.509064 451.891205,415.337982 
	C460.182251,428.398102 469.731293,440.610931 479.497162,452.617249 
	C481.387970,454.941864 483.545624,458.673706 487.080292,455.498108 
	C490.337433,452.571869 486.484619,450.425720 484.902527,448.595337 
	C478.246826,440.895142 472.348877,432.654419 466.623138,424.266113 
	C460.154236,414.789062 454.179718,404.951477 446.718689,396.186127 
	C436.299927,383.945953 423.872314,374.945068 407.010773,372.346283 
M471.640594,660.853760 
	C464.340393,653.550537 457.789886,645.265381 447.362549,641.608704 
	C445.157349,645.546448 444.512787,649.294556 444.401123,653.086121 
	C444.120544,662.613525 447.059601,666.710510 456.055634,669.604919 
	C464.323944,672.265076 472.288391,675.517029 479.213531,680.920166 
	C480.120392,681.627808 481.088928,682.334656 482.723175,681.406860 
	C482.333862,673.138672 476.997253,667.375610 471.640594,660.853760 
M550.920471,677.299988 
	C557.074341,673.168030 564.045227,670.770752 571.071228,668.972595 
	C579.894958,666.714355 581.588318,660.144531 581.515869,652.152527 
	C581.499695,650.367188 580.929199,648.553040 580.411133,646.812622 
	C579.042175,642.213867 577.315430,641.544556 573.227661,644.255554 
	C563.457825,650.734619 554.936707,658.569885 548.179321,668.198486 
	C545.152832,672.510864 543.148865,677.263367 542.531311,683.583618 
	C545.625793,681.255432 547.976624,679.486694 550.920471,677.299988 
M706.956848,376.024567 
	C711.432983,375.981293 715.939941,376.443115 720.365967,375.536743 
	C721.941895,375.213959 723.837708,374.732208 724.177551,372.801422 
	C724.541687,370.732910 723.058716,369.423706 721.499207,368.393280 
	C716.107300,364.830658 702.641846,366.084839 697.645691,370.572784 
	C700.626465,373.983765 702.118469,374.938782 706.956848,376.024567 
M319.919189,366.215759 
	C318.264465,366.142090 316.610382,366.039337 314.954834,366.001495 
	C312.426025,365.943604 310.392365,366.709747 309.499969,369.359009 
	C308.658569,371.856934 309.383514,373.855011 311.222839,375.647278 
	C312.956360,377.336487 314.986145,378.330475 317.341187,378.700928 
	C321.902893,379.418488 326.628143,376.533783 326.921143,372.109131 
	C327.168427,368.374817 323.953461,367.053528 319.919189,366.215759 
z"/>
<path fill="#000000" opacity="1.000000" stroke="none" 
	d="
M654.710083,733.051025 
	C655.404297,728.216187 658.780212,726.766846 662.294128,729.345947 
	C667.767090,733.362976 671.190063,732.521790 674.105591,726.531311 
	C676.414307,721.787842 677.166199,716.589661 677.448242,711.527222 
	C678.085754,700.083130 678.580383,688.579712 675.722168,677.262085 
	C675.018433,674.475891 674.102539,671.828796 672.536377,669.459290 
	C669.758667,665.256714 665.241760,665.026367 662.520203,669.285950 
	C660.901917,671.818726 658.932800,671.337402 656.905457,671.072754 
	C654.316833,670.734924 654.586365,668.483765 654.757263,666.741699 
	C657.091736,642.933960 659.725525,619.170959 667.502625,596.351501 
	C669.955627,589.153748 674.298035,584.239624 682.609680,584.145447 
	C692.936707,584.028442 703.255859,583.982849 713.586487,584.233154 
	C720.322327,584.396423 723.882263,588.091248 726.415405,593.576355 
	C730.495605,602.411499 732.566650,611.860535 734.247192,621.335815 
	C740.052673,654.067810 741.398743,687.146729 740.039795,720.258911 
	C738.977844,746.130981 736.904846,772.004578 729.460938,797.058655 
	C728.705383,799.601624 727.732666,802.088318 726.730713,804.548157 
	C723.722839,811.932617 718.669922,815.893127 710.210999,815.499268 
	C701.064880,815.073486 691.873535,815.134399 682.721436,815.488708 
	C676.302917,815.737183 672.334412,812.858215 669.625061,807.467285 
	C665.310913,798.883301 663.648438,789.516724 661.697937,780.256226 
	C658.445190,764.812744 656.563354,749.154297 654.710083,733.051025 
z"/>
<path fill="#000000" opacity="1.000000" stroke="none" 
	d="
M319.053589,583.626526 
	C327.873291,583.630005 336.204529,583.762268 344.529541,583.591736 
	C349.611694,583.487549 352.997925,585.613159 355.436615,589.984314 
	C361.049622,600.045227 363.070099,611.175049 365.299469,622.241333 
	C368.251556,636.895264 369.433411,651.792786 371.161194,666.612854 
	C371.361572,668.331421 371.886871,670.672363 369.344269,671.098816 
	C367.382935,671.427795 365.333374,671.950989 363.529755,669.685730 
	C359.209259,664.259460 354.353851,665.184021 352.254700,671.762695 
	C346.866791,688.648193 346.762573,705.787170 350.640167,722.942383 
	C351.486450,726.686340 352.847443,730.861877 357.771027,731.573425 
	C360.256531,731.932678 362.204865,730.927246 363.999451,729.132385 
	C365.567902,727.563721 367.719238,727.910950 369.658569,728.577576 
	C371.562500,729.232117 371.223022,730.872314 371.061127,732.365784 
	C369.022644,751.168457 366.720184,769.932495 362.337219,788.367188 
	C360.723022,795.156494 359.125061,801.968872 355.771698,808.186401 
	C353.205872,812.943726 349.610870,815.663147 343.789764,815.479553 
	C334.304321,815.180481 324.789032,815.062988 315.312500,815.473022 
	C306.830017,815.840027 302.429260,811.146484 299.499969,804.238708 
	C294.658997,792.822754 292.559601,780.665344 290.790009,768.524719 
	C286.924835,742.006714 284.854614,715.299683 285.786072,688.509460 
	C286.836426,658.299011 288.358795,628.069824 297.599915,598.901245 
	C299.022888,594.409790 300.824219,590.126221 304.363037,586.853760 
	C308.452698,583.071899 313.572845,583.580872 319.053589,583.626526 
M319.585175,622.249878 
	C312.383179,624.195129 309.981354,630.493896 307.180359,636.258301 
	C302.915161,645.035889 303.626434,654.788452 302.406921,664.128906 
	C301.285004,672.722046 303.839813,675.068604 312.634338,675.110840 
	C314.297546,675.118835 315.963684,675.017029 317.623749,675.083496 
	C321.397919,675.234558 323.190796,673.066467 323.511322,669.698120 
	C324.622437,658.021606 326.120361,646.338684 326.305298,634.639771 
	C326.373108,630.349609 325.187073,624.993530 319.585175,622.249878 
z"/>
<path fill="#000000" opacity="1.000000" stroke="none" 
	d="
M740.027710,622.842529 
	C741.280518,620.448303 743.292114,621.028381 745.021851,621.058655 
	C752.673218,621.192688 760.321594,621.481384 767.972534,621.650513 
	C772.831482,621.757996 775.604736,624.541931 777.175049,628.767944 
	C780.083984,636.596497 781.260437,644.811951 782.311218,653.038330 
	C785.166016,675.387573 784.570740,697.860596 784.232666,720.287903 
	C783.990234,736.368958 782.833801,752.463074 778.462097,768.088074 
	C775.771240,777.705688 773.488831,779.360657 763.793823,779.376526 
	C755.657715,779.389771 747.521667,779.379211 738.980347,779.379211 
	C749.232239,727.164795 753.132202,675.247253 740.027710,622.842529 
z"/>
<path fill="#000000" opacity="1.000000" stroke="none" 
	d="
M278.339417,710.806641 
	C279.797913,733.933777 281.899017,756.501526 287.616852,779.141968 
	C276.749329,779.141968 266.647827,779.382568 256.568695,779.012939 
	C252.984344,778.881592 251.016922,775.644531 249.701477,772.437622 
	C246.069000,763.582092 244.879684,754.159973 243.755569,744.791992 
	C241.233414,723.773499 241.131454,702.623352 241.788986,681.517578 
	C242.299667,665.125488 243.272491,648.687744 247.597946,632.704285 
	C250.123367,623.372314 252.386276,621.627991 261.839111,621.634949 
	C269.787415,621.640747 277.735718,621.636108 286.744995,621.636108 
	C277.898651,651.238281 277.757843,680.753418 278.339417,710.806641 
z"/>
<path fill="#000000" opacity="1.000000" stroke="none" 
	d="
M669.418945,681.410400 
	C672.833313,686.219788 672.539978,691.598083 672.942688,696.610107 
	C673.472473,703.202209 672.692810,709.876892 670.996399,716.334961 
	C670.223206,719.278503 668.442871,721.342041 665.016113,721.335510 
	C639.229126,721.286743 613.442078,721.261292 587.655151,721.190796 
	C586.877380,721.188721 586.100708,720.773804 584.829102,720.409912 
	C586.043152,712.744751 589.944031,706.379517 593.681885,700.029968 
	C597.576721,693.413879 602.914917,687.860107 607.885071,682.046631 
	C609.428040,680.241821 611.209473,679.589661 613.551270,679.598999 
	C630.188477,679.665161 646.825989,679.637451 663.463440,679.640137 
	C665.476196,679.640442 667.476624,679.690735 669.418945,681.410400 
z"/>
<path fill="#000000" opacity="1.000000" stroke="none" 
	d="
M379.092041,721.377563 
	C373.292389,721.592224 367.980896,721.911865 362.666016,721.986755 
	C357.562164,722.058594 354.499634,719.408752 353.937988,714.328552 
	C352.932373,705.232056 352.679718,696.160339 354.435852,687.066528 
	C355.453430,681.797119 358.647217,679.708801 363.494354,679.683594 
	C379.966339,679.597900 396.439087,679.651794 412.911530,679.649536 
	C414.435913,679.649353 415.895142,679.763733 416.994812,681.050598 
	C426.303406,691.944397 435.644806,702.813721 439.934875,716.919006 
	C440.275055,718.037476 440.694458,719.127075 439.734070,721.375549 
	C419.992279,721.375549 399.785522,721.375549 379.092041,721.377563 
z"/>
<path fill="#000000" opacity="1.000000" stroke="none" 
	d="
M513.027832,718.724792 
	C532.604492,718.739197 550.984192,722.800598 569.836487,728.441467 
	C564.761536,735.405701 561.377747,742.750610 553.078979,746.613586 
	C544.068970,750.807739 535.050842,752.532654 525.171570,752.578430 
	C514.033020,752.630066 502.888336,752.720642 491.770813,752.291077 
	C475.470795,751.661255 463.510376,744.051147 456.583069,728.359192 
	C474.777832,722.106567 493.412079,719.054321 513.027832,718.724792 
z"/>
<path fill="#000000" opacity="1.000000" stroke="none" 
	d="
M224.034531,721.304565 
	C209.438187,721.260803 208.868057,720.699829 208.852493,706.772766 
	C208.845230,700.280090 208.768036,693.785950 208.875961,687.295105 
	C208.972031,681.516418 210.715225,679.755615 216.314560,679.657227 
	C221.473755,679.566589 226.640884,679.784119 231.795044,679.600220 
	C235.375275,679.472534 236.499390,680.974731 236.166168,684.376038 
	C235.077408,695.489807 234.800003,706.616760 236.033630,717.746704 
	C236.319366,720.324707 235.022430,721.373596 232.511154,721.307068 
	C229.849548,721.236389 227.184372,721.299927 224.034531,721.304565 
z"/>
<path fill="#000000" opacity="1.000000" stroke="none" 
	d="
M796.139771,679.643188 
	C801.280396,679.656921 805.942932,679.600830 810.601624,679.707947 
	C814.791077,679.804199 817.143738,682.072388 817.188232,686.260254 
	C817.285278,695.414490 817.265869,704.570862 817.193176,713.725525 
	C817.156494,718.348206 814.520996,720.833618 810.053650,721.047974 
	C804.738831,721.303040 799.405884,721.156006 794.082703,721.271301 
	C791.013977,721.337708 790.632019,719.474365 790.644043,717.044006 
	C790.685120,708.720886 790.675293,700.397339 790.637024,692.074219 
	C790.627075,689.915955 790.761658,687.683167 790.274109,685.615723 
	C789.139587,680.804321 791.042786,679.089294 796.139771,679.643188 
z"/>
</svg>